<svg width="285" height="88" viewBox="0 0 285 88" fill="none" xmlns="http://www.w3.org/2000/svg">
<path d="M53.968 42.832H55.056C58.4693 42.832 60.176 41.2 60.176 37.936C60.176 36.3573 59.8453 35.216 59.184 34.512C58.5227 33.7867 57.4773 33.424 56.048 33.424C55.1307 33.424 54.4373 33.4667 53.968 33.552V42.832ZM53.424 32.56L57.008 32.464C62.0853 32.464 64.624 34.288 64.624 37.936C64.624 39.5573 64.048 40.88 62.896 41.904C61.744 42.928 60.2613 43.44 58.448 43.44H57.712C60.144 43.76 61.808 44.496 62.704 45.648C63.6213 46.8 64.08 48.5493 64.08 50.896C64.08 52.3467 64.3787 53.232 64.976 53.552C65.1893 53.68 65.4987 53.744 65.904 53.744C66.3307 53.744 66.9067 53.5733 67.632 53.232L67.664 54C66.512 54.4907 65.3387 54.736 64.144 54.736C61.7547 54.736 60.3147 53.84 59.824 52.048C59.6533 51.3013 59.568 50.3733 59.568 49.264C59.568 48.1333 59.4933 47.2693 59.344 46.672C59.216 46.0533 59.0133 45.552 58.736 45.168C58.1173 44.2293 56.9547 43.76 55.248 43.76H53.968V52.944L56.4 53.232V54H47.376V53.232L49.744 52.976V33.616L46.992 33.232V32.432C48.784 32.5173 50.3947 32.56 51.824 32.56H53.424ZM78.9048 42.832C78.9048 40.2293 77.9981 38.928 76.1848 38.928C74.2861 38.928 73.1341 40.592 72.7288 43.92H78.8408C78.8834 43.4933 78.9048 43.1307 78.9048 42.832ZM75.8968 54.352C73.6141 54.352 71.7581 53.6053 70.3288 52.112C68.9208 50.6187 68.2168 48.6453 68.2168 46.192C68.2168 43.7387 68.9528 41.7653 70.4248 40.272C71.9181 38.7787 73.8061 38.032 76.0888 38.032C78.3714 38.032 80.0781 38.5227 81.2088 39.504C82.3394 40.464 82.9048 41.808 82.9048 43.536C82.9048 44.0267 82.8621 44.5387 82.7768 45.072H72.6328V46.192C72.6328 48.5813 72.9314 50.3947 73.5288 51.632C74.1261 52.848 75.0221 53.456 76.2168 53.456C77.4328 53.456 78.5314 53.2107 79.5128 52.72C80.5154 52.208 81.2941 51.4933 81.8488 50.576C82.3181 50.7253 82.5528 50.9493 82.5528 51.248C82.5528 51.7813 82.0514 52.4 81.0488 53.104C80.5581 53.4453 79.8541 53.744 78.9368 54C78.0408 54.2347 77.0274 54.352 75.8968 54.352ZM91.325 53.552C92.0717 53.552 92.6903 53.3173 93.181 52.848C93.6717 52.3573 93.917 51.568 93.917 50.48C93.917 49.6053 93.5543 48.944 92.829 48.496C92.2743 48.1547 91.5597 47.824 90.685 47.504C89.8317 47.1627 89.1703 46.8747 88.701 46.64C88.253 46.4053 87.7517 46.096 87.197 45.712C86.109 44.944 85.565 43.8987 85.565 42.576C85.565 41.2533 86.109 40.1653 87.197 39.312C88.3063 38.4587 89.917 38.032 92.029 38.032C93.3517 38.032 94.4717 38.32 95.389 38.896C96.3063 39.4507 96.765 40.1547 96.765 41.008C96.765 41.8613 96.4023 42.48 95.677 42.864C95.3357 43.0347 94.9943 43.12 94.653 43.12L93.501 42.768C93.629 42.1067 93.693 41.5093 93.693 40.976C93.693 40.4213 93.5223 39.9307 93.181 39.504C92.8397 39.056 92.3277 38.832 91.645 38.832C89.981 38.832 89.149 39.8347 89.149 41.84C89.149 42.7573 89.501 43.44 90.205 43.888C90.7383 44.2507 91.421 44.5813 92.253 44.88C93.085 45.1573 93.7357 45.4027 94.205 45.616C94.6957 45.8293 95.2183 46.128 95.773 46.512C96.8823 47.2373 97.437 48.3147 97.437 49.744C97.437 51.152 96.8503 52.272 95.677 53.104C94.5037 53.936 92.957 54.352 91.037 54.352C88.9037 54.352 87.325 54 86.301 53.296C85.7037 52.8693 85.405 52.3467 85.405 51.728C85.405 51.1093 85.6077 50.608 86.013 50.224C86.4397 49.84 87.0263 49.6373 87.773 49.616C87.9223 52.24 89.1063 53.552 91.325 53.552ZM110.53 42.832C110.53 40.2293 109.623 38.928 107.81 38.928C105.911 38.928 104.759 40.592 104.354 43.92H110.466C110.508 43.4933 110.53 43.1307 110.53 42.832ZM107.522 54.352C105.239 54.352 103.383 53.6053 101.954 52.112C100.546 50.6187 99.8418 48.6453 99.8418 46.192C99.8418 43.7387 100.578 41.7653 102.05 40.272C103.543 38.7787 105.431 38.032 107.714 38.032C109.996 38.032 111.703 38.5227 112.834 39.504C113.964 40.464 114.53 41.808 114.53 43.536C114.53 44.0267 114.487 44.5387 114.402 45.072H104.258V46.192C104.258 48.5813 104.556 50.3947 105.154 51.632C105.751 52.848 106.647 53.456 107.842 53.456C109.058 53.456 110.156 53.2107 111.138 52.72C112.14 52.208 112.919 51.4933 113.474 50.576C113.943 50.7253 114.178 50.9493 114.178 51.248C114.178 51.7813 113.676 52.4 112.674 53.104C112.183 53.4453 111.479 53.744 110.562 54C109.666 54.2347 108.652 54.352 107.522 54.352ZM122.726 42.16C123.089 41.008 123.75 40.0267 124.71 39.216C125.691 38.4053 126.577 38 127.366 38C128.177 38 128.721 38.2027 128.998 38.608C129.275 38.992 129.414 39.312 129.414 39.568C129.414 40.4427 129.094 41.072 128.454 41.456C128.027 41.1147 127.387 40.944 126.534 40.944C125.702 40.944 124.87 41.2107 124.038 41.744C123.206 42.256 122.79 42.8213 122.79 43.44V53.072L125.67 53.264V54H116.742V53.264L118.854 53.104V39.44L116.262 39.312V38.576L122.79 38.224L122.598 42.16H122.726ZM139.962 38.384H146.106V39.152L143.834 39.824L138.65 54H136.922L130.938 39.376L129.498 39.152V38.384H136.73V39.152L134.842 39.376L138.938 49.776L142.49 39.824L139.962 39.184V38.384ZM155.928 46.512C153.453 46.512 151.896 47.1627 151.256 48.464C150.978 49.0187 150.84 49.712 150.84 50.544C150.84 51.9733 151.33 52.8053 152.312 53.04C152.461 53.0827 152.621 53.104 152.792 53.104C153.474 53.104 154.157 52.752 154.84 52.048C155.522 51.3227 155.885 50.3947 155.928 49.264V46.512ZM150.808 43.376C150.338 43.696 149.848 43.856 149.336 43.856C148.824 43.856 148.386 43.6853 148.024 43.344C147.661 43.0027 147.48 42.5013 147.48 41.84C147.48 41.1573 147.682 40.5493 148.088 40.016C148.493 39.4827 149.016 39.088 149.656 38.832C150.914 38.2987 152.109 38.032 153.24 38.032C155.757 38.032 157.474 38.48 158.392 39.376C159.309 40.2507 159.768 41.6053 159.768 43.44V53.072L162.456 53.264V53.968L156.344 54.352L156.056 51.664C155.053 53.4773 153.325 54.384 150.872 54.384C149.762 54.384 148.802 54.0533 147.992 53.392C147.202 52.7093 146.808 51.76 146.808 50.544C146.829 48.9227 147.64 47.7067 149.24 46.896C150.84 46.064 153.069 45.648 155.928 45.648V42.896C155.928 41.5947 155.746 40.592 155.384 39.888C155.021 39.184 154.349 38.832 153.368 38.832C152.386 38.832 151.65 39.2373 151.16 40.048C150.84 40.5813 150.68 41.1467 150.68 41.744C150.68 42.3413 150.722 42.8853 150.808 43.376ZM169.161 54.352C167.113 54.352 165.811 53.6373 165.257 52.208C165.022 51.5893 164.905 50.8107 164.905 49.872C164.905 46.3307 164.958 42.7787 165.065 39.216H162.889V38.384H165.097L165.129 33.68H169.225L169.129 38.384H173.609V39.216H169.129L169.065 41.808C169.001 45.264 168.969 48.432 168.969 51.312C168.969 52.144 169.054 52.7093 169.225 53.008C169.417 53.3067 169.747 53.456 170.217 53.456C170.707 53.456 171.241 53.1253 171.817 52.464C172.414 51.7813 172.841 50.9707 173.097 50.032C173.523 50.032 173.737 50.1813 173.737 50.48C173.737 50.544 173.726 50.6187 173.705 50.704C173.363 51.8133 172.777 52.6987 171.945 53.36C171.134 54.0213 170.206 54.352 169.161 54.352ZM183.5 54H175.243V53.264L177.324 53.072V39.44L174.572 39.28V38.608L181.42 38.192V53.072L183.5 53.264V54ZM181.644 32.816C181.644 33.456 181.409 34.0107 180.94 34.48C180.492 34.9493 179.926 35.184 179.244 35.184C178.561 35.184 177.985 34.96 177.516 34.512C177.068 34.0427 176.844 33.4773 176.844 32.816C176.844 32.1333 177.078 31.5573 177.548 31.088C178.017 30.5973 178.582 30.352 179.244 30.352C179.905 30.352 180.47 30.5973 180.94 31.088C181.409 31.5787 181.644 32.1547 181.644 32.816ZM199.775 52.048C198.281 53.584 196.244 54.352 193.663 54.352C191.081 54.352 189.044 53.584 187.551 52.048C186.057 50.512 185.311 48.56 185.311 46.192C185.311 43.824 186.057 41.872 187.551 40.336C189.044 38.8 191.081 38.032 193.663 38.032C196.244 38.032 198.281 38.8 199.775 40.336C201.268 41.872 202.015 43.824 202.015 46.192C202.015 48.56 201.268 50.512 199.775 52.048ZM189.759 46.192C189.759 51.12 191.06 53.584 193.663 53.584C196.265 53.584 197.567 51.12 197.567 46.192C197.567 43.7813 197.279 41.9573 196.703 40.72C196.127 39.4613 195.113 38.832 193.663 38.832C192.212 38.832 191.199 39.4613 190.623 40.72C190.047 41.9573 189.759 43.7813 189.759 46.192ZM216.85 53.072L217.042 42.928C217.042 41.6693 216.882 40.752 216.562 40.176C216.242 39.6 215.602 39.312 214.642 39.312C213.682 39.312 212.743 39.888 211.826 41.04C210.93 42.1707 210.461 43.152 210.418 43.984V53.072L212.818 53.264V54H204.242V53.264L206.354 53.072V39.44L203.73 39.312V38.64L210.29 38.256L210.13 41.52H210.45C211.026 40.4533 211.805 39.632 212.786 39.056C213.767 38.4587 214.823 38.16 215.954 38.16C219.367 38.16 221.074 39.8027 221.074 43.088C221.074 45.456 220.999 48.784 220.85 53.072L223.058 53.264V54H215.314V53.264L216.85 53.072ZM230.825 53.552C231.572 53.552 232.19 53.3173 232.681 52.848C233.172 52.3573 233.417 51.568 233.417 50.48C233.417 49.6053 233.054 48.944 232.329 48.496C231.774 48.1547 231.06 47.824 230.185 47.504C229.332 47.1627 228.67 46.8747 228.201 46.64C227.753 46.4053 227.252 46.096 226.697 45.712C225.609 44.944 225.065 43.8987 225.065 42.576C225.065 41.2533 225.609 40.1653 226.697 39.312C227.806 38.4587 229.417 38.032 231.529 38.032C232.852 38.032 233.972 38.32 234.889 38.896C235.806 39.4507 236.265 40.1547 236.265 41.008C236.265 41.8613 235.902 42.48 235.177 42.864C234.836 43.0347 234.494 43.12 234.153 43.12L233.001 42.768C233.129 42.1067 233.193 41.5093 233.193 40.976C233.193 40.4213 233.022 39.9307 232.681 39.504C232.34 39.056 231.828 38.832 231.145 38.832C229.481 38.832 228.649 39.8347 228.649 41.84C228.649 42.7573 229.001 43.44 229.705 43.888C230.238 44.2507 230.921 44.5813 231.753 44.88C232.585 45.1573 233.236 45.4027 233.705 45.616C234.196 45.8293 234.718 46.128 235.273 46.512C236.382 47.2373 236.937 48.3147 236.937 49.744C236.937 51.152 236.35 52.272 235.177 53.104C234.004 53.936 232.457 54.352 230.537 54.352C228.404 54.352 226.825 54 225.801 53.296C225.204 52.8693 224.905 52.3467 224.905 51.728C224.905 51.1093 225.108 50.608 225.513 50.224C225.94 49.84 226.526 49.6373 227.273 49.616C227.422 52.24 228.606 53.552 230.825 53.552Z" fill="white"/>
<rect x="1" y="1" width="283" height="86" stroke="white" stroke-width="2"/>
</svg>
